<svg width="477" height="477" viewBox="0 0 477 477" fill="none" xmlns="http://www.w3.org/2000/svg">
<rect width="477" height="477" fill="white"/>
<path d="M100.508 172.646C100.139 168.922 98.554 166.029 95.7534 163.967C92.9527 161.905 89.1518 160.874 84.3507 160.874C81.0884 160.874 78.3339 161.335 76.0872 162.259C73.8405 163.151 72.117 164.397 70.9167 165.998C69.7472 167.598 69.1625 169.414 69.1625 171.445C69.1009 173.138 69.4548 174.615 70.2243 175.877C71.0244 177.139 72.117 178.232 73.502 179.155C74.8869 180.047 76.4873 180.832 78.3031 181.509C80.1189 182.156 82.0578 182.71 84.1199 183.171L92.6142 185.202C96.7382 186.126 100.524 187.357 103.971 188.896C107.418 190.434 110.403 192.327 112.927 194.574C115.45 196.821 117.405 199.467 118.79 202.514C120.205 205.561 120.929 209.054 120.959 212.994C120.929 218.78 119.451 223.796 116.528 228.043C113.635 232.26 109.449 235.537 103.971 237.876C98.5233 240.185 91.9525 241.339 84.2583 241.339C76.6258 241.339 69.978 240.169 64.3152 237.83C58.6831 235.491 54.282 232.029 51.112 227.443C47.9728 222.827 46.3263 217.118 46.1724 210.316H65.5154C65.7309 213.486 66.6388 216.133 68.2392 218.256C69.8703 220.349 72.0401 221.934 74.7484 223.011C77.4875 224.058 80.5806 224.581 84.0275 224.581C87.4129 224.581 90.3521 224.089 92.845 223.104C95.3687 222.119 97.323 220.749 98.7079 218.995C100.093 217.241 100.785 215.225 100.785 212.947C100.785 210.824 100.154 209.039 98.8926 207.592C97.6615 206.146 95.8457 204.915 93.4451 203.899C91.0753 202.884 88.167 201.96 84.72 201.129L74.4252 198.544C66.4541 196.605 60.1603 193.574 55.5439 189.45C50.9274 185.326 48.6345 179.77 48.6653 172.784C48.6345 167.06 50.158 162.058 53.2356 157.781C56.344 153.503 60.6066 150.163 66.0233 147.763C71.4399 145.362 77.5952 144.162 84.4892 144.162C91.5062 144.162 97.6307 145.362 102.863 147.763C108.126 150.163 112.219 153.503 115.143 157.781C118.066 162.058 119.574 167.013 119.667 172.646H100.508ZM153.702 199.006V240H134.036V145.455H153.148V181.602H153.979C155.579 177.416 158.164 174.138 161.734 171.768C165.304 169.368 169.782 168.168 175.168 168.168C180.093 168.168 184.386 169.245 188.048 171.399C191.741 173.523 194.604 176.585 196.635 180.586C198.697 184.556 199.713 189.311 199.682 194.851V240H180.016V198.359C180.046 193.989 178.938 190.588 176.692 188.157C174.476 185.726 171.367 184.51 167.366 184.51C164.689 184.51 162.319 185.079 160.257 186.218C158.226 187.357 156.625 189.019 155.456 191.204C154.317 193.358 153.732 195.959 153.702 199.006ZM247.197 241.385C240.026 241.385 233.825 239.862 228.593 236.815C223.391 233.737 219.375 229.459 216.544 223.981C213.712 218.472 212.296 212.086 212.296 204.822C212.296 197.498 213.712 191.096 216.544 185.618C219.375 180.109 223.391 175.831 228.593 172.784C233.825 169.706 240.026 168.168 247.197 168.168C254.368 168.168 260.554 169.706 265.755 172.784C270.987 175.831 275.019 180.109 277.85 185.618C280.682 191.096 282.097 197.498 282.097 204.822C282.097 212.086 280.682 218.472 277.85 223.981C275.019 229.459 270.987 233.737 265.755 236.815C260.554 239.862 254.368 241.385 247.197 241.385ZM247.289 226.151C250.552 226.151 253.275 225.227 255.46 223.381C257.646 221.503 259.292 218.949 260.4 215.717C261.539 212.486 262.108 208.808 262.108 204.684C262.108 200.56 261.539 196.882 260.4 193.651C259.292 190.419 257.646 187.865 255.46 185.987C253.275 184.11 250.552 183.171 247.289 183.171C243.996 183.171 241.226 184.11 238.98 185.987C236.764 187.865 235.086 190.419 233.948 193.651C232.84 196.882 232.286 200.56 232.286 204.684C232.286 208.808 232.84 212.486 233.948 215.717C235.086 218.949 236.764 221.503 238.98 223.381C241.226 225.227 243.996 226.151 247.289 226.151ZM326.923 241.385C319.66 241.385 313.413 239.846 308.181 236.768C302.979 233.66 298.978 229.351 296.178 223.842C293.408 218.333 292.023 211.993 292.023 204.822C292.023 197.559 293.423 191.188 296.224 185.71C299.055 180.201 303.072 175.908 308.273 172.83C313.474 169.722 319.66 168.168 326.831 168.168C333.017 168.168 338.434 169.291 343.081 171.538C347.728 173.784 351.406 176.939 354.115 181.001C356.823 185.064 358.316 189.834 358.593 195.312H340.034C339.511 191.773 338.126 188.926 335.879 186.772C333.664 184.587 330.755 183.494 327.154 183.494C324.107 183.494 321.445 184.325 319.168 185.987C316.921 187.618 315.167 190.004 313.905 193.143C312.643 196.282 312.012 200.083 312.012 204.545C312.012 209.07 312.628 212.917 313.859 216.087C315.121 219.257 316.89 221.673 319.168 223.335C321.445 224.996 324.107 225.827 327.154 225.827C329.401 225.827 331.417 225.366 333.202 224.442C335.018 223.519 336.51 222.18 337.68 220.426C338.88 218.641 339.665 216.502 340.034 214.009H358.593C358.285 219.426 356.807 224.196 354.161 228.32C351.545 232.414 347.928 235.614 343.312 237.923C338.695 240.231 333.233 241.385 326.923 241.385ZM389.004 219.595L389.05 196.005H391.912L414.625 169.091H437.2L406.685 204.73H402.022L389.004 219.595ZM371.184 240V145.455H390.85V240H371.184ZM415.502 240L394.636 209.116L407.746 195.22L438.538 240H415.502Z" fill="#F26522"/>
<path d="M152.277 268.298V255.818H217.845V268.298H192.445V338H177.677V268.298H152.277ZM230.486 338V255.818H283.936V268.298H245.373V290.609H281.167V303.089H245.373V325.52H284.257V338H230.486ZM343.787 278.41C343.412 274.906 341.834 272.177 339.052 270.224C336.296 268.271 332.711 267.295 328.297 267.295C325.194 267.295 322.532 267.763 320.312 268.699C318.091 269.636 316.393 270.906 315.216 272.511C314.039 274.116 313.437 275.949 313.41 278.009C313.41 279.721 313.798 281.206 314.574 282.463C315.376 283.72 316.46 284.79 317.824 285.673C319.188 286.529 320.7 287.252 322.358 287.84C324.017 288.429 325.689 288.924 327.374 289.325L335.079 291.251C338.182 291.973 341.165 292.95 344.027 294.18C346.917 295.411 349.498 296.963 351.772 298.835C354.073 300.708 355.892 302.968 357.229 305.617C358.567 308.265 359.236 311.368 359.236 314.926C359.236 319.742 358.005 323.982 355.544 327.647C353.083 331.285 349.525 334.134 344.87 336.194C340.242 338.227 334.638 339.244 328.057 339.244C321.663 339.244 316.112 338.254 311.403 336.275C306.722 334.295 303.057 331.406 300.408 327.607C297.787 323.808 296.369 319.18 296.155 313.723H310.802C311.016 316.585 311.898 318.966 313.45 320.865C315.002 322.765 317.021 324.183 319.509 325.119C322.024 326.055 324.833 326.523 327.936 326.523C331.173 326.523 334.009 326.042 336.443 325.079C338.904 324.089 340.831 322.725 342.222 320.986C343.613 319.22 344.322 317.16 344.348 314.806C344.322 312.666 343.693 310.9 342.462 309.509C341.232 308.091 339.506 306.914 337.286 305.978C335.092 305.015 332.524 304.159 329.581 303.41L320.232 301.002C313.463 299.263 308.113 296.628 304.18 293.097C300.275 289.539 298.322 284.817 298.322 278.932C298.322 274.09 299.633 269.85 302.254 266.211C304.903 262.573 308.501 259.751 313.049 257.744C317.597 255.711 322.746 254.695 328.498 254.695C334.33 254.695 339.439 255.711 343.827 257.744C348.241 259.751 351.705 262.546 354.22 266.131C356.735 269.689 358.032 273.782 358.112 278.41H343.787ZM368.897 268.298V255.818H434.466V268.298H409.065V338H394.298V268.298H368.897Z" fill="#2D2D2D"/>
</svg>
