<svg width="400" height="200" viewBox="5 28 395 200" fill="none" xmlns="http://www.w3.org/2000/svg">
<path d="M61.5083 58.6456C61.139 54.9216 59.554 52.0286 56.7534 49.9666C53.9527 47.9046 50.1518 46.8736 45.3507 46.8736C42.0884 46.8736 39.3339 47.3352 37.0872 48.2585C34.8405 49.151 33.117 50.3975 31.9167 51.9979C30.7472 53.5982 30.1625 55.4141 30.1625 57.4453C30.1009 59.138 30.4548 60.6153 31.2243 61.8771C32.0244 63.139 33.117 64.2315 34.502 65.1548C35.8869 66.0473 37.4873 66.8321 39.3031 67.5092C41.1189 68.1555 43.0578 68.7095 45.1199 69.1712L53.6142 71.2024C57.7382 72.1257 61.5237 73.3568 64.9707 74.8956C68.4177 76.4344 71.403 78.3272 73.9267 80.5739C76.4503 82.8205 78.4047 85.4673 79.7896 88.5142C81.2053 91.5611 81.9286 95.0542 81.9593 98.9936C81.9286 104.78 80.4513 109.796 77.5275 114.043C74.6345 118.26 70.4489 121.537 64.9707 123.876C59.5233 126.185 52.9525 127.339 45.2583 127.339C37.6258 127.339 30.978 126.169 25.3152 123.83C19.6831 121.491 15.282 118.029 12.112 113.443C8.97283 108.827 7.32629 103.118 7.17241 96.316H26.5154C26.7309 99.486 27.6388 102.133 29.2392 104.256C30.8703 106.349 33.0401 107.934 35.7484 109.011C38.4875 110.058 41.5806 110.581 45.0275 110.581C48.4129 110.581 51.3521 110.089 53.845 109.104C56.3687 108.119 58.323 106.749 59.7079 104.995C61.0929 103.241 61.7853 101.225 61.7853 98.9474C61.7853 96.8239 61.1544 95.0388 59.8926 93.5923C58.6615 92.1458 56.8457 90.9148 54.4451 89.8991C52.0753 88.8835 49.167 87.9602 45.72 87.1293L35.4252 84.544C27.4541 82.6051 21.1603 79.5736 16.5439 75.4496C11.9274 71.3255 9.63453 65.7704 9.66531 58.7841C9.63453 53.0597 11.158 48.0585 14.2356 43.7805C17.344 39.5026 21.6066 36.1634 27.0233 33.7628C32.4399 31.3622 38.5952 30.1619 45.4892 30.1619C52.5062 30.1619 58.6307 31.3622 63.8627 33.7628C69.1255 36.1634 73.2188 39.5026 76.1426 43.7805C79.0663 48.0585 80.5744 53.0135 80.6667 58.6456H61.5083ZM114.702 85.0057V126H95.0355V31.4545H114.148V67.6016H114.979C116.579 63.416 119.164 60.1383 122.734 57.7685C126.304 55.3679 130.782 54.1676 136.168 54.1676C141.093 54.1676 145.386 55.2448 149.048 57.3991C152.741 59.5227 155.604 62.585 157.635 66.5859C159.697 70.5561 160.713 75.3111 160.682 80.8508V126H141.016V84.3594C141.046 79.9891 139.938 76.5883 137.692 74.157C135.476 71.7256 132.367 70.5099 128.366 70.5099C125.689 70.5099 123.319 71.0793 121.257 72.218C119.226 73.3568 117.625 75.0187 116.456 77.2038C115.317 79.3582 114.732 81.9588 114.702 85.0057ZM208.197 127.385C201.026 127.385 194.825 125.862 189.593 122.815C184.391 119.737 180.375 115.459 177.544 109.981C174.712 104.472 173.296 98.0857 173.296 90.8224C173.296 83.4976 174.712 77.0961 177.544 71.6179C180.375 66.1089 184.391 61.831 189.593 58.7841C194.825 55.7064 201.026 54.1676 208.197 54.1676C215.368 54.1676 221.554 55.7064 226.755 58.7841C231.987 61.831 236.019 66.1089 238.85 71.6179C241.682 77.0961 243.097 83.4976 243.097 90.8224C243.097 98.0857 241.682 104.472 238.85 109.981C236.019 115.459 231.987 119.737 226.755 122.815C221.554 125.862 215.368 127.385 208.197 127.385ZM208.289 112.151C211.552 112.151 214.275 111.227 216.46 109.381C218.646 107.503 220.292 104.949 221.4 101.717C222.539 98.4858 223.108 94.808 223.108 90.6839C223.108 86.5599 222.539 82.8821 221.4 79.6506C220.292 76.419 218.646 73.8646 216.46 71.9872C214.275 70.1098 211.552 69.1712 208.289 69.1712C204.996 69.1712 202.226 70.1098 199.98 71.9872C197.764 73.8646 196.086 76.419 194.948 79.6506C193.84 82.8821 193.286 86.5599 193.286 90.6839C193.286 94.808 193.84 98.4858 194.948 101.717C196.086 104.949 197.764 107.503 199.98 109.381C202.226 111.227 204.996 112.151 208.289 112.151ZM287.923 127.385C280.66 127.385 274.413 125.846 269.181 122.768C263.979 119.66 259.978 115.351 257.178 109.842C254.408 104.333 253.023 97.9934 253.023 90.8224C253.023 83.5592 254.423 77.1884 257.224 71.7102C260.055 66.2012 264.072 61.9079 269.273 58.8303C274.474 55.7218 280.66 54.1676 287.831 54.1676C294.017 54.1676 299.434 55.291 304.081 57.5376C308.728 59.7843 312.406 62.9389 315.115 67.0014C317.823 71.0639 319.316 75.8343 319.593 81.3125H301.034C300.511 77.7732 299.126 74.9264 296.879 72.772C294.664 70.5869 291.755 69.4943 288.154 69.4943C285.107 69.4943 282.445 70.3253 280.168 71.9872C277.921 73.6184 276.167 76.0036 274.905 79.1428C273.643 82.282 273.012 86.0829 273.012 90.5455C273.012 95.0696 273.628 98.9167 274.859 102.087C276.121 105.257 277.89 107.673 280.168 109.335C282.445 110.996 285.107 111.827 288.154 111.827C290.401 111.827 292.417 111.366 294.202 110.442C296.018 109.519 297.51 108.18 298.68 106.426C299.88 104.641 300.665 102.502 301.034 100.009H319.593C319.285 105.426 317.807 110.196 315.161 114.32C312.545 118.414 308.928 121.614 304.312 123.923C299.695 126.231 294.233 127.385 287.923 127.385ZM350.004 105.595L350.05 82.005H352.912L375.625 55.0909H398.2L367.685 90.7301H363.022L350.004 105.595ZM332.184 126V31.4545H351.85V126H332.184ZM376.502 126L355.636 95.1158L368.746 81.2202L399.538 126H376.502Z" fill="#F26522"/>
<path d="M130.227 154.298V141.818H195.795V154.298H170.395V224H155.627V154.298H130.227ZM202.786 224V141.818H256.236V154.298H217.673V176.609H253.467V189.089H217.673V211.52H256.557V224H202.786ZM310.437 164.41C310.062 160.906 308.484 158.177 305.702 156.224C302.946 154.271 299.361 153.295 294.947 153.295C291.844 153.295 289.182 153.763 286.962 154.699C284.741 155.636 283.043 156.906 281.866 158.511C280.689 160.116 280.087 161.949 280.06 164.009C280.06 165.721 280.448 167.206 281.224 168.463C282.026 169.72 283.11 170.79 284.474 171.673C285.838 172.529 287.35 173.252 289.008 173.84C290.667 174.429 292.339 174.924 294.024 175.325L301.729 177.251C304.832 177.973 307.815 178.95 310.677 180.18C313.567 181.411 316.148 182.963 318.422 184.835C320.723 186.708 322.542 188.968 323.88 191.617C325.217 194.265 325.886 197.368 325.886 200.926C325.886 205.742 324.655 209.982 322.194 213.647C319.733 217.285 316.175 220.134 311.52 222.194C306.892 224.227 301.288 225.244 294.707 225.244C288.313 225.244 282.762 224.254 278.054 222.275C273.372 220.295 269.707 217.406 267.058 213.607C264.437 209.808 263.019 205.18 262.805 199.723H277.452C277.666 202.585 278.548 204.966 280.1 206.865C281.652 208.765 283.671 210.183 286.159 211.119C288.674 212.055 291.483 212.523 294.586 212.523C297.823 212.523 300.659 212.042 303.093 211.079C305.554 210.089 307.481 208.725 308.872 206.986C310.263 205.22 310.972 203.16 310.998 200.806C310.972 198.666 310.343 196.9 309.112 195.509C307.882 194.091 306.156 192.914 303.936 191.978C301.742 191.015 299.174 190.159 296.231 189.41L286.882 187.002C280.113 185.263 274.763 182.628 270.831 179.097C266.925 175.539 264.972 170.817 264.972 164.932C264.972 160.09 266.283 155.85 268.904 152.211C271.553 148.573 275.151 145.751 279.699 143.744C284.247 141.711 289.396 140.695 295.148 140.695C300.98 140.695 306.09 141.711 310.477 143.744C314.891 145.751 318.355 148.546 320.87 152.131C323.385 155.689 324.682 159.782 324.762 164.41H310.437ZM329.897 154.298V141.818H395.466V154.298H370.065V224H355.298V154.298H329.897Z" fill="#2D2D2D"/>
</svg>
